HIERARCHY
ROOT Hips
{
	OFFSET 0.000000 0.000000 0.000000
	CHANNELS 6 Xposition Yposition Zposition Zrotation Yrotation Xrotation 
	JOINT LHipJoint
	{
		OFFSET 0.000000 0.000000 0.000000
		CHANNELS 3 Zrotation Yrotation Xrotation
		JOINT LeftUpLeg
		{
			OFFSET 1.363060 -1.794630 0.839290
			CHANNELS 3 Zrotation Yrotation Xrotation
			JOINT LeftLeg
			{
				OFFSET 2.448110 -6.726130 0.000000
				CHANNELS 3 Zrotation Yrotation Xrotation
				JOINT LeftFoot
				{
					OFFSET 2.562200 -7.039590 0.000000
					CHANNELS 3 Zrotation Yrotation Xrotation
					JOINT LeftToeBase
					{
						OFFSET 0.157640 -0.433110 2.322550
						CHANNELS 3 Zrotation Yrotation Xrotation
						End Site
						{
							OFFSET 0.000000 0.000000 0.000000
						}
					}
				}
			}
		}
	}
	JOINT RHipJoint
	{
		OFFSET 0.000000 0.000000 0.000000
		CHANNELS 3 Zrotation Yrotation Xrotation
		JOINT RightUpLeg
		{
			OFFSET -1.305520 -1.794630 0.839290
			CHANNELS 3 Zrotation Yrotation Xrotation
			JOINT RightLeg
			{
				OFFSET -2.542530 -6.985550 0.000000
				CHANNELS 3 Zrotation Yrotation Xrotation
				JOINT RightFoot
				{
					OFFSET -2.568260 -7.056230 0.000000
					CHANNELS 3 Zrotation Yrotation Xrotation
					JOINT RightToeBase
					{
						OFFSET -0.164730 -0.452590 2.363150
						CHANNELS 3 Zrotation Yrotation Xrotation
						End Site
						{
							OFFSET 0.000000 0.000000 0.000000
						}
					}
				}
			}
		}
	}
}
MOTION
Frames: 11
Frame Time: 0.008333
25.275320 16.222484 2.344775 -178.589836 -80.540425 -168.554946 -10.036511 -0.244348 2.303210 -10.700910 1.815836 -49.048151 -1.309465 2.176624 47.011297 1.862203 7.234205 -15.389906 -1.026700 -0.000000 -12.982600 10.167748 -5.093262 0.337471 0.050300 -5.939867 6.778767 0.949760 -2.231256 26.019769 0.707485 13.329339 14.543946 4.595400 -0.000000 -89.944400
25.107864 16.208089 2.362841 178.756596 -80.684597 -166.431496 -10.026163 -0.178989 2.013878 -11.480572 2.313989 -47.935098 -1.372451 2.179231 47.612018 1.810318 6.879948 -16.169145 -1.136900 0.000000 -13.439100 10.435991 -5.086896 0.160721 -0.964937 -6.685971 5.279218 0.609776 -2.515308 30.070989 0.494001 13.322295 16.705104 5.160700 0.000000 -89.518600
24.943784 16.193410 2.380257 175.740895 -80.872828 -163.932926 -9.987228 -0.108738 1.732718 -12.310215 2.772727 -46.775293 -1.439696 2.162823 48.113298 1.767533 6.535137 -16.987120 -1.244800 -0.000000 -13.889001 10.735161 -5.045509 -0.019637 -2.003722 -7.484894 3.642918 0.290716 -2.773188 34.244232 0.246839 12.879134 18.672032 5.512800 -0.000000 -87.845300
24.782413 16.178968 2.397514 172.553917 -81.086212 -161.243130 -9.919552 -0.028002 1.466932 -13.147643 3.196192 -45.586207 -1.508197 2.132633 48.524084 1.735875 6.211878 -17.833038 -1.350300 0.000000 -14.305200 11.051617 -4.966752 -0.201445 -3.000230 -8.285446 1.913617 0.001061 -3.012761 38.477277 -0.021686 11.880036 20.294017 5.524701 -0.000000 -85.084100
24.623113 16.165482 2.414770 169.271682 -81.313015 -158.432270 -9.822600 0.066961 1.223839 -13.972010 3.573573 -44.377949 -1.576069 2.092252 48.842747 1.717392 5.925929 -18.690385 -1.454200 0.000000 -14.665100 11.378343 -4.851701 -0.385023 -3.924725 -9.067316 0.111139 -0.260190 -3.244905 42.724972 -0.301343 10.279888 21.439244 5.122500 0.000000 -81.506900
24.465605 16.153798 2.432286 165.991928 -81.541822 -155.595205 -9.700967 0.177897 1.009086 -14.758726 3.898677 -43.157869 -1.642197 2.045927 49.067926 1.712188 5.685235 -19.542368 -1.557200 -0.000000 -14.954200 11.705476 -4.703182 -0.569390 -4.746074 -9.807695 -1.746223 -0.500713 -3.478348 46.942147 -0.585200 8.098300 22.005256 4.301501 -0.000000 -77.429600
24.309265 16.144626 2.450412 162.802252 -81.761526 -152.818860 -9.563182 0.304211 0.825224 -15.486313 4.167143 -41.932225 -1.706458 1.998399 49.198964 1.718946 5.492075 -20.372804 -1.659300 0.000000 -15.167299 12.021670 -4.523518 -0.753985 -5.438922 -10.485433 -3.645693 -0.730993 -3.717755 51.086315 -0.869107 5.428580 21.931498 3.137400 -0.000000 -73.115700
24.153674 16.138751 2.469320 159.743979 -81.966608 -150.138535 -9.416772 0.443166 0.674217 -16.145309 4.370315 -40.704048 -1.768891 1.951818 49.230977 1.736169 5.347876 -21.164694 -1.760599 0.000000 -15.307000 12.319578 -4.317544 -0.935539 -5.993062 -11.086442 -5.584007 -0.959515 -3.964034 55.114259 -1.150100 2.429593 21.206599 1.772500 -0.000000 -68.723100
23.998507 16.136678 2.489130 156.848206 -82.152839 -147.584979 -9.269678 0.590750 0.555809 -16.730219 4.503014 -39.474666 -1.829759 1.907653 49.161316 1.761619 5.249888 -21.903565 -1.860600 0.000000 -15.382099 12.592510 -4.090260 -1.110528 -6.403898 -11.599252 -7.557729 -1.191507 -4.214818 58.982929 -1.424260 -0.703659 19.865234 0.380600 -0.000000 -64.309200
23.843584 16.138894 2.509890 154.129380 -82.316273 -145.170914 -9.127801 0.742862 0.468635 -17.242127 4.561112 -38.241695 -1.889456 1.865895 48.984346 1.793321 5.195879 -22.576532 -1.958700 0.000000 -15.405600 12.836325 -3.846713 -1.274511 -6.675532 -12.015591 -9.564953 -1.427984 -4.465228 62.646953 -1.685786 -3.768711 17.986630 -0.870400 0.000000 -59.858200
23.688569 16.145605 2.531704 151.617436 -82.454904 -142.927376 -8.997726 0.895222 0.409414 -17.681206 4.549072 -37.002256 -1.948504 1.826339 48.698530 1.828775 5.179011 -23.175917 -2.053600 -0.000000 -15.391500 13.046176 -3.592323 -1.423442 -6.812624 -12.329499 -11.599171 -1.666160 -4.708848 66.063170 -1.926340 -6.582887 15.679791 -1.851001 0.000000 -55.322200
